<?xml version="1.0" encoding="UTF-8"?>
<svg xmlns="http://www.w3.org/2000/svg" xmlns:xlink="http://www.w3.org/1999/xlink" width="3726" height="2795" viewBox="0 0 3726 2795">
<path fill-rule="nonzero" fill="rgb(100%, 100%, 100%)" fill-opacity="1" d="M 0 2794.269531 L 3725.691406 2794.269531 L 3725.691406 0 L 0 0 Z M 0 2794.269531 "/>
<path fill-rule="nonzero" fill="rgb(0%, 0%, 0%)" fill-opacity="1" stroke-width="7.49999" stroke-linecap="butt" stroke-linejoin="miter" stroke="rgb(0%, 0%, 0%)" stroke-opacity="1" stroke-miterlimit="4" d="M 12557.8125 786.992188 C 12557.8125 777.226562 12549.882812 769.335938 12540.117188 769.335938 C 12530.390625 769.335938 12522.382812 777.226562 12522.382812 786.992188 C 12522.382812 796.757812 12530.390625 804.6875 12540.117188 804.6875 C 12549.882812 804.6875 12557.8125 796.757812 12557.8125 786.992188 Z M 12557.8125 786.992188 " transform="matrix(0.1, 0, 0, -0.1, 0, 2795)"/>
<path fill="none" stroke-width="141.732" stroke-linecap="butt" stroke-linejoin="miter" stroke="rgb(0%, 0%, 0%)" stroke-opacity="1" stroke-miterlimit="4" d="M 7049.726562 4410 C 8937.539062 5140.546875 11095.78125 5145.976562 12987.304688 4424.921875 C 13115.507812 4376.054688 13243.710938 4323.359375 13356.484375 4245.234375 C 13469.296875 4167.109375 13566.914062 4060.9375 13612.695312 3931.5625 C 13655.390625 3810.976562 13650 3674.84375 13602.109375 3556.25 C 13554.101562 3437.65625 13464.609375 3337.03125 13354.609375 3271.679688 C 13244.6875 3206.289062 13115 3175.859375 12987.109375 3180.976562 C 12859.296875 3186.09375 12733.59375 3226.210938 12623.984375 3292.1875 C 12404.804688 3424.21875 12256.210938 3656.09375 12193.710938 3904.21875 C 12131.09375 4152.34375 12148.90625 4415.507812 12209.414062 4664.140625 C 12301.992188 5045.039062 12495.117188 5401.015625 12763.789062 5686.40625 C 13032.5 5971.796875 13376.289062 6185.9375 13750.898438 6301.328125 C 14125.507812 6416.757812 14530.195312 6433.125 14912.890625 6348.398438 C 15295.585938 6263.671875 15655.507812 6078.046875 15946.40625 5815.3125 " transform="matrix(0.1, 0, 0, -0.1, 0, 2795)"/>
<path fill-rule="evenodd" fill="rgb(0%, 0%, 0%)" fill-opacity="1" d="M 1615.769531 2137.402344 L 1712.550781 2319.949219 L 1521.121094 2242.207031 C 1574.890625 2235.34375 1614.28125 2191.722656 1615.769531 2137.402344 Z M 1615.769531 2137.402344 "/>
<path fill="none" stroke-width="141.732" stroke-linecap="butt" stroke-linejoin="miter" stroke="rgb(0%, 0%, 0%)" stroke-opacity="1" stroke-miterlimit="4" d="M 8669.6875 9304.84375 C 9696.015625 8467.890625 11014.296875 7996.328125 12338.59375 7992.460938 C 13662.890625 7988.554688 14983.90625 8452.421875 16015.117188 9283.359375 C 16774.804688 9895.546875 17376.992188 10701.601562 17748.59375 11603.789062 " transform="matrix(0.1, 0, 0, -0.1, 0, 2795)"/>
<path fill-rule="evenodd" fill="rgb(0%, 0%, 0%)" fill-opacity="1" d="M 1696.121094 1640.371094 L 1835.351562 1487.71875 L 1826.699219 1694.148438 C 1802.109375 1645.839844 1747.761719 1623.460938 1696.121094 1640.371094 Z M 1696.121094 1640.371094 "/>
<path fill="none" stroke-width="141.732" stroke-linecap="butt" stroke-linejoin="miter" stroke="rgb(0%, 0%, 0%)" stroke-opacity="1" stroke-miterlimit="4" d="M 11780.703125 14398.398438 C 14088.515625 14581.40625 16410.390625 14585.117188 18718.789062 14409.414062 C 19328.789062 14363.007812 19937.890625 14304.101562 20545.507812 14232.695312 " transform="matrix(0.1, 0, 0, -0.1, 0, 2795)"/>
<path fill-rule="evenodd" fill="rgb(0%, 0%, 0%)" fill-opacity="1" d="M 1218.851562 1422.761719 L 1019.699219 1367.71875 L 1207.679688 1281.980469 C 1175.738281 1325.769531 1180.390625 1384.371094 1218.851562 1422.761719 Z M 1218.851562 1422.761719 "/>
<path fill="none" stroke-width="141.732" stroke-linecap="butt" stroke-linejoin="miter" stroke="rgb(0%, 0%, 0%)" stroke-opacity="1" stroke-miterlimit="4" d="M 9707.695312 16900.898438 C 9744.023438 16944.609375 9779.53125 16988.984375 9814.179688 17033.984375 C 10424.609375 17827.109375 10760.703125 18827.1875 10753.203125 19828.007812 C 10745.703125 20828.710938 10394.492188 21823.710938 9772.304688 22607.5 C 9150.117188 23391.289062 8260.703125 23958.90625 7287.773438 24193.28125 C 6314.84375 24427.617188 5264.53125 24327.1875 4353.671875 23912.617188 C 3442.8125 23498.085938 2677.1875 22771.992188 2214.882812 21884.414062 C 1752.539062 20996.914062 1596.445312 19953.398438 1778.789062 18969.414062 C 1961.132812 17985.390625 2480.820312 17067.109375 3230.46875 16404.21875 C 3980.15625 15741.210938 4955.078125 15337.8125 5953.984375 15277.109375 " transform="matrix(0.1, 0, 0, -0.1, 0, 2795)"/>
<path fill-rule="evenodd" fill="rgb(0%, 0%, 0%)" fill-opacity="1" d="M 564.4375 1194.671875 L 753.976562 1276.910156 L 555.882812 1335.621094 C 593.613281 1296.710938 597.175781 1238.039062 564.4375 1194.671875 Z M 564.4375 1194.671875 "/>
<path fill="none" stroke-width="141.732" stroke-linecap="butt" stroke-linejoin="miter" stroke="rgb(0%, 0%, 0%)" stroke-opacity="1" stroke-miterlimit="4" d="M 11973.515625 21036.015625 C 12394.492188 20336.601562 12999.804688 19749.101562 13711.601562 19349.296875 C 14423.28125 18949.414062 15239.882812 18738.085938 16056.289062 18742.382812 C 16872.617188 18746.71875 17686.914062 18966.71875 18394.414062 19373.984375 C 19101.914062 19781.40625 19700.898438 20375.195312 20114.609375 21078.984375 C 20241.601562 21295.117188 20352.5 21524.804688 20398.007812 21771.40625 C 20443.398438 22017.890625 20418.203125 22284.414062 20287.8125 22498.515625 C 20198.085938 22645.703125 20061.289062 22762.890625 19904.296875 22834.101562 C 19747.1875 22905.195312 19570.585938 22930.898438 19399.101562 22913.007812 C 19056.09375 22877.1875 18744.21875 22667.382812 18545.390625 22385.585938 C 18346.601562 22103.789062 18254.101562 21756.289062 18241.40625 21411.71875 C 18228.710938 21067.109375 18291.914062 20723.59375 18382.382812 20390.78125 C 18755.585938 19018.398438 19611.09375 17782.304688 20764.101562 16949.6875 " transform="matrix(0.1, 0, 0, -0.1, 0, 2795)"/>
<path fill-rule="evenodd" fill="rgb(0%, 0%, 0%)" fill-opacity="1" d="M 2089.128906 1022.121094 L 2205.210938 1193.039062 L 2006.449219 1136.609375 C 2059.148438 1123.929688 2093.570312 1076.28125 2089.128906 1022.121094 Z M 2089.128906 1022.121094 "/>
<path fill="none" stroke-width="141.732" stroke-linecap="butt" stroke-linejoin="miter" stroke="rgb(0%, 0%, 0%)" stroke-opacity="1" stroke-miterlimit="4" d="M 20563.90625 12406.40625 C 22501.289062 11797.617188 24623.203125 11790.3125 26564.804688 12385.703125 C 26702.304688 12427.8125 26839.492188 12473.203125 26967.5 12538.789062 C 27095.507812 12604.492188 27214.609375 12691.484375 27301.992188 12805.78125 C 27389.296875 12920 27443.085938 13063.203125 27434.6875 13206.796875 C 27430.390625 13278.59375 27410.703125 13349.6875 27375.3125 13412.304688 C 27339.804688 13474.882812 27288.59375 13528.789062 27226.601562 13565.3125 C 27143.789062 13614.101562 27043.398438 13630.585938 26948.515625 13615.390625 C 26853.59375 13600.117188 26764.492188 13553.984375 26693.984375 13488.789062 C 26623.515625 13423.398438 26571.210938 13339.414062 26539.101562 13248.90625 C 26506.992188 13158.203125 26494.804688 13061.210938 26498.59375 12965.117188 C 26507.617188 12735.390625 26609.296875 12512.890625 26766.914062 12345.507812 C 26924.492188 12178.085938 27135.585938 12064.609375 27359.21875 12011.015625 C 27582.8125 11957.304688 27818.398438 11961.992188 28043.398438 12009.804688 C 28268.28125 12057.5 28483.007812 12147.617188 28682.695312 12261.484375 C 29188.789062 12550.117188 29603.007812 12997.1875 29851.992188 13523.90625 " transform="matrix(0.1, 0, 0, -0.1, 0, 2795)"/>
<path fill-rule="evenodd" fill="rgb(0%, 0%, 0%)" fill-opacity="1" d="M 2906.28125 1444.351562 L 3053.109375 1298.988281 L 3033.949219 1504.710938 C 3011.859375 1455.210938 2958.710938 1430.089844 2906.28125 1444.351562 Z M 2906.28125 1444.351562 "/>
<path fill="none" stroke-width="141.732" stroke-linecap="butt" stroke-linejoin="miter" stroke="rgb(0%, 0%, 0%)" stroke-opacity="1" stroke-miterlimit="4" d="M 26158.007812 15142.304688 C 26430.585938 16815.195312 26110.898438 18578.59375 25268.59375 20049.296875 C 24426.210938 21520.117188 23066.914062 22688.007812 21486.09375 23299.296875 C 20322.5 23749.21875 19045 23900.898438 17808.59375 23735.78125 " transform="matrix(0.1, 0, 0, -0.1, 0, 2795)"/>
<path fill-rule="evenodd" fill="rgb(0%, 0%, 0%)" fill-opacity="1" d="M 1825.191406 486.738281 L 1623.378906 442.441406 L 1806.5 346.761719 C 1776.949219 392.199219 1784.730469 450.46875 1825.191406 486.738281 Z M 1825.191406 486.738281 "/>
<path fill="none" stroke-width="141.733" stroke-linecap="butt" stroke-linejoin="miter" stroke="rgb(0%, 0%, 0%)" stroke-opacity="1" stroke-miterlimit="4" d="M 33960 13708.789062 C 34131.914062 13648.007812 34285.78125 13536.796875 34397.5 13392.617188 C 34509.101562 13248.28125 34578.203125 13071.484375 34593.90625 12889.804688 C 34609.6875 12708.085938 34571.914062 12521.992188 34486.71875 12360.78125 C 34401.484375 12199.492188 34268.984375 12063.59375 34110 11974.21875 C 34095.703125 11966.210938 34081.289062 11958.515625 34067.109375 11950.390625 C 33929.21875 11871.40625 33819.21875 11747.304688 33749.21875 11604.6875 C 33679.21875 11461.992188 33648.398438 11301.484375 33651.601562 11142.695312 C 33658.085938 10824.882812 33797.1875 10522.304688 33981.40625 10263.398438 C 34119.101562 10069.6875 34282.304688 9895.546875 34426.914062 9706.914062 C 34571.484375 9518.28125 34699.296875 9310.273438 34751.289062 9078.398438 C 34777.304688 8962.421875 34783.59375 8841.484375 34763.28125 8724.414062 C 34742.890625 8607.34375 34695.195312 8494.257812 34620.3125 8402.03125 C 34545.390625 8309.804688 34442.695312 8239.179688 34327.890625 8208.476562 C 34213.085938 8177.773438 34086.601562 8188.4375 33981.40625 8243.671875 C 33952.5 8258.828125 33925.195312 8277.226562 33895.703125 8291.171875 C 33821.40625 8326.289062 33734.296875 8331.5625 33655 8309.6875 C 33575.78125 8287.851562 33504.804688 8239.648438 33451.796875 8176.875 C 33398.789062 8114.101562 33363.515625 8037.148438 33346.289062 7956.796875 C 33329.101562 7876.445312 33329.492188 7792.773438 33343.28125 7711.757812 C 33370.898438 7549.765625 33450.195312 7400.898438 33542.5 7264.921875 C 33634.804688 7128.945312 33741.015625 7002.734375 33831.40625 6865.507812 C 34181.601562 6333.90625 34271.09375 5638.90625 34067.109375 5035.898438 " transform="matrix(0.1, 0, 0, -0.1, 0, 2795)"/>
<path fill-rule="evenodd" fill="rgb(0%, 0%, 0%)" fill-opacity="1" d="M 3484.910156 2280.597656 L 3355.800781 2441.898438 L 3351.140625 2235.339844 C 3378.789062 2281.964844 3434.46875 2300.800781 3484.910156 2280.597656 Z M 3484.910156 2280.597656 "/>
<path fill="none" stroke-width="141.733" stroke-linecap="butt" stroke-linejoin="miter" stroke="rgb(0%, 0%, 0%)" stroke-opacity="1" stroke-miterlimit="4" d="M 4239.570312 3487.226562 C 4067.539062 3548.007812 3913.710938 3659.179688 3802.070312 3803.4375 C 3690.390625 3947.65625 3621.328125 4124.453125 3605.585938 4306.171875 C 3589.882812 4487.929688 3627.578125 4673.945312 3712.8125 4835.234375 C 3798.046875 4996.484375 3930.546875 5132.421875 4089.53125 5221.796875 C 4103.789062 5229.804688 4118.242188 5237.460938 4132.382812 5245.585938 C 4270.273438 5324.53125 4380.351562 5448.671875 4450.351562 5591.328125 C 4520.351562 5733.945312 4551.09375 5894.453125 4547.890625 6053.320312 C 4541.484375 6371.054688 4402.304688 6673.632812 4218.125 6932.617188 C 4080.390625 7126.289062 3917.1875 7300.429688 3772.617188 7489.0625 C 3628.046875 7677.695312 3500.234375 7885.703125 3448.242188 8117.617188 C 3422.265625 8233.554688 3415.859375 8354.53125 3436.25 8471.601562 C 3456.601562 8588.671875 3504.257812 8701.71875 3579.21875 8793.945312 C 3654.140625 8886.171875 3756.796875 8956.796875 3871.601562 8987.5 C 3986.40625 9018.203125 4112.890625 9007.539062 4218.125 8952.34375 C 4247.070312 8937.148438 4274.296875 8918.75 4303.828125 8904.804688 C 4378.125 8869.6875 4465.273438 8864.414062 4544.492188 8886.289062 C 4623.710938 8908.164062 4694.765625 8956.328125 4747.773438 9019.101562 C 4800.78125 9081.914062 4836.015625 9158.867188 4853.242188 9239.21875 C 4870.46875 9319.53125 4870 9403.203125 4856.210938 9484.21875 C 4828.671875 9646.25 4749.335938 9795.078125 4657.03125 9931.054688 C 4564.765625 10066.992188 4458.554688 10193.203125 4368.125 10330.507812 C 4017.929688 10862.109375 3928.398438 11557.109375 4132.382812 12160.117188 " transform="matrix(0.1, 0, 0, -0.1, 0, 2795)"/>
<path fill-rule="evenodd" fill="rgb(0%, 0%, 0%)" fill-opacity="1" d="M 335.042969 1589.808594 L 464.15625 1428.5 L 468.808594 1635.058594 C 441.164062 1588.441406 385.484375 1569.601562 335.042969 1589.808594 Z M 335.042969 1589.808594 "/>
<path fill="none" stroke-width="141.733" stroke-linecap="butt" stroke-linejoin="miter" stroke="rgb(0%, 0%, 0%)" stroke-opacity="1" stroke-miterlimit="4" d="M 30169.492188 9517.03125 C 30108.789062 9345.039062 29997.5 9191.210938 29853.28125 9079.53125 C 29709.101562 8967.851562 29532.304688 8898.789062 29350.585938 8883.085938 C 29168.789062 8867.34375 28982.8125 8905.078125 28821.484375 8990.3125 C 28660.195312 9075.546875 28524.296875 9208.007812 28434.882812 9367.03125 C 28426.914062 9381.25 28419.296875 9395.703125 28411.210938 9409.882812 C 28332.1875 9547.773438 28208.085938 9657.8125 28065.390625 9727.8125 C 27922.8125 9797.8125 27762.304688 9828.59375 27603.398438 9825.390625 C 27285.703125 9818.984375 26983.085938 9679.765625 26724.101562 9495.585938 C 26530.390625 9357.851562 26356.289062 9194.648438 26167.695312 9050.078125 C 25978.984375 8905.507812 25771.09375 8777.695312 25539.101562 8725.742188 C 25423.203125 8699.726562 25302.1875 8693.359375 25185.195312 8713.710938 C 25068.085938 8734.101562 24955 8781.757812 24862.8125 8856.679688 C 24770.585938 8931.601562 24699.882812 9034.296875 24669.21875 9149.0625 C 24638.515625 9263.867188 24649.21875 9390.390625 24704.414062 9495.585938 C 24719.609375 9524.53125 24738.007812 9551.757812 24751.914062 9581.328125 C 24786.992188 9655.625 24792.304688 9742.773438 24770.390625 9821.953125 C 24748.59375 9901.171875 24700.390625 9972.226562 24637.617188 10025.195312 C 24574.804688 10078.203125 24497.890625 10113.515625 24417.5 10130.703125 C 24337.1875 10147.890625 24253.515625 10147.5 24172.5 10133.710938 C 24010.507812 10106.09375 23861.601562 10026.796875 23725.703125 9934.53125 C 23589.6875 9842.226562 23463.515625 9736.015625 23326.289062 9645.625 C 22794.6875 9295.390625 22099.6875 9205.859375 21496.601562 9409.882812 " transform="matrix(0.1, 0, 0, -0.1, 0, 2795)"/>
<path fill-rule="evenodd" fill="rgb(0%, 0%, 0%)" fill-opacity="1" d="M 2160.480469 1932.210938 L 1999.179688 1803.097656 L 2205.730469 1798.441406 C 2159.109375 1826.089844 2140.269531 1881.769531 2160.480469 1932.210938 Z M 2160.480469 1932.210938 "/>
<path fill="none" stroke-width="141.733" stroke-linecap="butt" stroke-linejoin="miter" stroke="rgb(0%, 0%, 0%)" stroke-opacity="1" stroke-miterlimit="4" d="M 21208.90625 5532.539062 C 21269.6875 5360.546875 21380.898438 5206.679688 21525.117188 5095.039062 C 21669.296875 4983.359375 21846.09375 4914.296875 22027.890625 4898.554688 C 22209.609375 4882.851562 22395.585938 4920.546875 22556.914062 5005.78125 C 22718.203125 5091.015625 22854.101562 5223.515625 22943.515625 5382.5 C 22951.484375 5396.757812 22959.101562 5411.210938 22967.1875 5425.390625 C 23046.210938 5563.28125 23170.3125 5673.320312 23313.007812 5743.320312 C 23455.585938 5813.320312 23616.09375 5844.101562 23775 5840.898438 C 24092.695312 5834.492188 24395.3125 5695.273438 24654.296875 5511.09375 C 24848.007812 5373.359375 25022.109375 5210.15625 25210.703125 5065.585938 C 25399.414062 4921.015625 25607.304688 4793.203125 25839.296875 4741.210938 C 25955.195312 4715.234375 26076.210938 4708.867188 26193.203125 4729.21875 C 26310.3125 4749.570312 26423.398438 4797.265625 26515.585938 4872.1875 C 26607.890625 4947.109375 26678.515625 5049.765625 26709.21875 5164.570312 C 26739.882812 5279.375 26729.21875 5405.898438 26673.984375 5511.09375 C 26658.789062 5540.039062 26640.390625 5567.265625 26626.484375 5596.835938 C 26591.40625 5671.09375 26586.09375 5758.242188 26608.007812 5837.460938 C 26629.804688 5916.679688 26678.007812 5987.734375 26740.78125 6040.742188 C 26803.59375 6093.75 26880.507812 6128.984375 26960.898438 6146.210938 C 27041.210938 6163.4375 27124.882812 6162.96875 27205.898438 6149.179688 C 27367.890625 6121.640625 27516.796875 6042.304688 27652.695312 5950.039062 C 27788.710938 5857.734375 27914.882812 5751.523438 28052.1875 5661.09375 C 28583.789062 5310.898438 29278.789062 5221.367188 29881.796875 5425.390625 " transform="matrix(0.1, 0, 0, -0.1, 0, 2795)"/>
<path fill-rule="evenodd" fill="rgb(0%, 0%, 0%)" fill-opacity="1" d="M 2932.109375 2196.890625 L 3138.660156 2201.546875 L 2977.359375 2330.660156 C 2997.628906 2280.386719 2978.789062 2224.707031 2932.109375 2196.890625 Z M 2932.109375 2196.890625 "/>
<path fill="none" stroke-width="141.732" stroke-linecap="butt" stroke-linejoin="miter" stroke="rgb(0%, 0%, 0%)" stroke-opacity="1" stroke-miterlimit="4" d="M 32689.804688 21746.914062 C 31720.3125 22116.09375 30573.710938 21979.804688 29717.695312 21393.710938 C 28861.796875 20807.617188 28320.195312 19787.8125 28313.789062 18750.507812 C 28307.5 17713.085938 28836.601562 16686.796875 29685.3125 16090.195312 C 30533.984375 15493.710938 31678.90625 15343.398438 32652.8125 15700.703125 C 33545.585938 16028.203125 34266.796875 16755.390625 34663.28125 17619.6875 C 35059.804688 18483.984375 35144.6875 19474.21875 34984.492188 20411.601562 C 34680.390625 22191.015625 33468.90625 23790.898438 31838.59375 24566.015625 " transform="matrix(0.1, 0, 0, -0.1, 0, 2795)"/>
<path fill-rule="evenodd" fill="rgb(0%, 0%, 0%)" fill-opacity="1" d="M 3185.421875 417.320312 L 3040.378906 270.179688 L 3246.058594 289.789062 C 3196.511719 311.769531 3171.269531 364.859375 3185.421875 417.320312 Z M 3185.421875 417.320312 "/>
</svg>
